<svg width="72" height="60" viewBox="0 0 72 60" fill="none" xmlns="http://www.w3.org/2000/svg">
<path d="M72 51V57C72 57.8125 71.7031 58.5156 71.1094 59.1094C70.5156 59.7031 69.8125 60 69 60H3C2.1875 60 1.48438 59.7031 0.890625 59.1094C0.296875 58.5156 0 57.8125 0 57V51C0 50.1875 0.296875 49.4844 0.890625 48.8906C1.48438 48.2969 2.1875 48 3 48H69C69.8125 48 70.5156 48.2969 71.1094 48.8906C71.7031 49.4844 72 50.1875 72 51ZM72 27V33C72 33.8125 71.7031 34.5156 71.1094 35.1094C70.5156 35.7031 69.8125 36 69 36H3C2.1875 36 1.48438 35.7031 0.890625 35.1094C0.296875 34.5156 0 33.8125 0 33V27C0 26.1875 0.296875 25.4844 0.890625 24.8906C1.48438 24.2969 2.1875 24 3 24H69C69.8125 24 70.5156 24.2969 71.1094 24.8906C71.7031 25.4844 72 26.1875 72 27ZM72 3V9C72 9.8125 71.7031 10.5156 71.1094 11.1094C70.5156 11.7031 69.8125 12 69 12H3C2.1875 12 1.48438 11.7031 0.890625 11.1094C0.296875 10.5156 0 9.8125 0 9V3C0 2.1875 0.296875 1.48438 0.890625 0.890625C1.48438 0.296875 2.1875 0 3 0H69C69.8125 0 70.5156 0.296875 71.1094 0.890625C71.7031 1.48438 72 2.1875 72 3Z" fill="black"/>
</svg>
