<svg width="86" height="86" viewBox="0 0 86 86" fill="none" xmlns="http://www.w3.org/2000/svg">
<path d="M30.8946 77.1832C31.204 77.5187 31.3686 77.9626 31.3524 78.4187C31.3363 78.8747 31.1409 79.306 30.8086 79.6188L27.0728 83.1121C26.7392 83.422 26.2962 83.5869 25.8412 83.5704C25.3861 83.554 24.9562 83.3576 24.6459 83.0244L2.8896 59.5773C2.58043 59.2417 2.41622 58.7976 2.43264 58.3415C2.44907 57.8855 2.64481 57.4543 2.97732 57.1418L6.71832 53.6536C6.8834 53.5 7.07713 53.3803 7.28847 53.3016C7.4998 53.2228 7.72458 53.1865 7.94996 53.1946C8.17534 53.2027 8.39692 53.2552 8.60201 53.349C8.8071 53.4429 8.9917 53.5762 9.14524 53.7414L30.8946 77.1832ZM58.6554 33.0652C58.9646 33.4009 59.1288 33.845 59.1124 34.301C59.096 34.7571 58.9002 35.1882 58.5677 35.5008L35.0553 57.4652C34.7217 57.7751 34.2788 57.9399 33.8237 57.9235C33.3687 57.907 32.9387 57.7107 32.6284 57.3774L27.016 51.3213C26.7069 50.9857 26.5427 50.5416 26.5591 50.0855C26.5755 49.6295 26.7712 49.1983 27.1038 48.8858L50.611 26.9214C50.7759 26.7678 50.9695 26.6482 51.1807 26.5694C51.3919 26.4907 51.6165 26.4544 51.8418 26.4625C52.067 26.4707 52.2885 26.5231 52.4934 26.6169C52.6984 26.7107 52.8828 26.844 53.0362 27.0091L58.6554 33.0652ZM38.8944 69.7064C39.5376 70.3996 39.4981 71.4952 38.8066 72.1419L35.0656 75.6335C34.9006 75.7872 34.7068 75.9068 34.4955 75.9856C34.2842 76.0644 34.0594 76.1007 33.834 76.0926C33.6086 76.0844 33.3871 76.0319 33.182 75.9381C32.9769 75.8443 32.7923 75.711 32.6387 75.5458L10.8945 52.0988C10.5851 51.7633 10.4206 51.3194 10.4367 50.8633C10.4528 50.4073 10.6482 49.976 10.9805 49.6632L14.7146 46.1734C15.0482 45.8634 15.4912 45.6986 15.9462 45.715C16.4013 45.7315 16.8312 45.9279 17.1415 46.2611L38.8944 69.7064ZM75.1227 33.9063C75.4317 34.2422 75.5956 34.6864 75.5788 35.1425C75.5621 35.5985 75.366 36.0295 75.0333 36.3418L71.294 39.8334C70.9603 40.1437 70.5172 40.3089 70.0619 40.2928C69.6066 40.2766 69.1762 40.0805 68.8654 39.7474L47.1177 16.3056C46.8079 15.9703 46.6431 15.5263 46.6592 15.0701C46.6753 14.6139 46.871 14.1826 47.2037 13.87L50.9533 10.3698C51.1182 10.2162 51.3118 10.0966 51.523 10.0179C51.7342 9.93914 51.9588 9.9028 52.1841 9.91095C52.4093 9.91909 52.6307 9.97156 52.8357 10.0654C53.0406 10.1592 53.2251 10.2924 53.3785 10.4576L75.1227 33.9063ZM83.1104 26.4415C83.4193 26.7777 83.5832 27.222 83.5668 27.6781C83.5504 28.1343 83.3549 28.5657 83.0227 28.8788L79.2903 32.3686C79.1255 32.5224 78.932 32.6421 78.7208 32.721C78.5097 32.7999 78.2851 32.8364 78.0599 32.8284C77.8346 32.8204 77.6132 32.7681 77.4081 32.6744C77.2031 32.5808 77.0186 32.4477 76.8651 32.2826L55.1208 8.83044C54.8118 8.49452 54.6475 8.05036 54.6636 7.59417C54.6797 7.13798 54.8749 6.7065 55.2068 6.3932L58.9427 2.89644C59.1073 2.74255 59.3006 2.62268 59.5116 2.54368C59.7226 2.46469 59.9471 2.42814 60.1723 2.43614C60.3974 2.44413 60.6188 2.4965 60.8237 2.59025C61.0286 2.684 61.2129 2.81728 61.3662 2.98244L83.1104 26.4415Z" fill="black"/>
</svg>
