<svg width="111" height="105" viewBox="0 0 111 105" fill="none" xmlns="http://www.w3.org/2000/svg">
<path d="M103.36 58.864C110.004 46.8907 96.4989 38.5875 78.8412 34.5155C80.1697 31.6591 80.5548 27.9202 76.8085 24.3502C72.0043 19.781 75.1973 13.125 75.1973 13.125C75.1973 13.125 65.1136 21.9237 71.4805 27.9907C73.8289 30.2269 75.0516 32.1907 75.6361 33.833C70.7615 32.8825 65.8256 32.2391 60.8609 31.9069C62.3438 28.0941 62.4878 23.3051 57.8154 18.7195C51.419 12.4343 55.6786 3.28125 55.6786 3.28125C55.6786 3.28125 42.232 15.3792 50.7218 23.7202C53.8211 26.7619 55.4532 29.4394 56.244 31.6838C50.9819 31.5345 45.9176 31.7527 41.4186 32.3482C41.9545 29.8955 41.5071 27.0752 38.6471 24.3518C33.8429 19.7827 37.0376 13.125 37.0376 13.125C37.0376 13.125 26.9522 21.9237 33.3208 27.9907C35.3153 29.8905 36.4843 31.587 37.1555 33.0652C36.3959 33.2227 35.6587 33.3933 34.9494 33.5787C13.0234 31.6378 3.46007 35.9231 7.82896 44.3297C0.20465 51.5419 3.06984 59.7729 12.6106 66.0712C17.5883 85.4651 18.87 101.719 56.3602 101.719C89.8129 101.719 94.435 88.7742 98.5784 72.2072C111.01 69.866 108.362 64.2288 103.36 58.864ZM100.261 56.9264C96.0965 65.3264 78.0243 71.6494 56.3602 71.6494C34.6979 71.6494 16.6257 65.3264 12.4597 56.9264C12.3713 56.677 12.2863 56.4178 12.2013 56.1652C14.1854 51.4041 20.6339 47.273 29.6908 44.5069C27.5627 46.4527 27.1204 49.3582 32.7207 50.377C34.3233 50.6691 38.7234 49.6584 36.8 44.4938C36.5311 43.7719 36.0923 43.2879 35.5529 42.9959C41.7759 41.6489 48.84 40.8729 56.3602 40.8729C57.2031 40.8729 58.0304 40.9008 58.8612 40.9188C54.5218 42.3757 50.9819 46.8645 59.8429 48.1884C61.7992 48.4805 67.1706 47.4698 64.8223 42.3052C64.6171 41.8448 64.2883 41.4433 63.8684 41.1403C72.1708 41.7178 79.6928 43.2305 85.7735 45.4109C80.4264 45.1287 74.4949 48.2459 83.994 52.6345C86.0319 53.5763 92.2236 54.4409 91.3721 48.738C91.3105 48.326 91.1567 47.9312 90.9211 47.5798C95.7826 50.003 99.1733 52.9413 100.517 56.1652L100.261 56.9264Z" fill="black"/>
<path d="M44.811 60.4423C50.4183 60.4423 54.1576 55.6467 57.0869 53.7699C61.1801 51.1449 71.4719 50.1211 62.408 49.9144C53.8107 49.7192 43.1963 56.321 36.1027 55.8666C24.3576 55.1119 36.3872 60.4423 44.811 60.4423Z" fill="black"/>
<path d="M56.9274 70.24C58.908 70.601 64.3522 69.3508 61.9709 62.9638C59.2809 55.7369 42.9969 67.7036 56.9274 70.24Z" fill="black"/>
<path d="M26.0971 54.4327C24.2049 51.9062 21.4612 48.702 20.3251 50.3705C18.7729 52.6526 18.2838 57.2447 19.4111 57.4482C28.2495 59.0511 27.6303 56.4786 26.0971 54.4327Z" fill="black"/>
<path d="M77.478 55.4564C79.0719 53.5894 75.8893 49.0957 73.8462 49.8816C70.648 51.1121 68.8044 50.2786 67.3996 52.1456C64.1095 56.5179 75.3118 57.9912 77.478 55.4564Z" fill="black"/>
<path d="M76.4825 60.8064C74.1896 59.8499 74.7308 63.0541 71.3435 60.4832C68.9189 58.6424 63.7019 63.2854 67.1429 66.4387C70.9724 69.948 71.9922 66.6126 73.6017 66.8931C76.8727 67.4624 82.4973 63.3166 76.4825 60.8064Z" fill="black"/>
<path d="M38.3574 61.9024C37.1625 60.79 35.5599 62.1321 34.6546 63.7694C33.7579 63.3527 33.0277 63.2559 33.0277 63.2559C32.3426 61.4085 30.3047 60.142 30.3047 60.142C30.3047 60.142 30.4903 62.0632 30.7591 63C28.5079 62.2436 28.4385 58.4374 28.4385 58.4374C28.4385 58.4374 26.9279 59.2921 27.0649 60.7441C24.5865 58.8525 22.4758 59.7368 22.4758 59.7368C22.4758 59.7368 25.6202 61.4102 26.0538 62.5389C24.2882 62.6685 23.258 63.246 22.6579 64.5897C22.6596 64.6012 26.1474 63.0196 28.7282 64.1615C27.7101 64.949 28.2165 66.9161 28.2165 66.9161C30.6187 64.5077 32.5369 64.7653 34.0718 65.1967C33.8862 65.9334 33.8984 66.606 34.2279 67.0146C36.8902 70.3253 46.1639 69.5805 48.6544 67.1327C51.6705 64.1714 43.29 66.4945 38.3574 61.9024Z" fill="black"/>
<path d="M44.9082 49.432C44.119 50.9315 44.1138 52.0636 45.0261 53.2415C45.0382 53.2448 45.3938 49.6026 47.7543 48.0932C47.9468 49.3237 49.9899 49.9209 49.9899 49.9209C48.3561 44.4478 53.1256 44.1623 53.1031 42.1985C50.5744 42.4003 49.1383 44.1393 49.1383 44.1393C47.1108 43.7472 44.9134 44.7497 44.9134 44.7497C44.9134 44.7497 46.7535 45.5847 47.7404 45.8489C45.8985 47.2877 42.4089 45.3895 42.4089 45.3895C42.4089 45.3895 42.4089 47.0564 43.7964 47.688C40.8081 48.7298 40.5271 50.8954 40.5271 50.8954C40.5271 50.8954 43.6594 49.204 44.9082 49.432Z" fill="black"/>
<path d="M89.2232 56.9068C89.9412 55.6172 88.8937 54.2769 88.8937 54.2769C88.8937 54.2769 87.2824 57.7665 84.8977 57.6467C85.5255 56.8789 86.4794 55.1726 86.4794 55.1726C86.4794 55.1726 84.0825 55.6041 82.6985 57.0594C82.6985 57.0594 80.4507 56.4704 78.2932 57.7304C79.5107 59.3218 83.524 56.8658 85.6521 62.1847C85.6521 62.1847 86.9182 60.5555 86.299 59.458C89.1469 59.3415 91.7242 62.0682 91.7328 62.0583C91.7224 60.5982 91.0079 59.6926 89.4278 58.9313C90.2881 58.047 93.8713 57.6451 93.8713 57.6451C93.8713 57.6451 92.2826 56.0619 89.2232 56.9068Z" fill="black"/>
</svg>
