<svg width="100" height="80" viewBox="0 0 100 80" fill="none" xmlns="http://www.w3.org/2000/svg">
<g clip-path="url(#clip0)">
<path d="M86.1111 35C87.7593 35 89.3705 34.5601 90.7409 33.736C92.1113 32.9119 93.1794 31.7406 93.8101 30.3701C94.4409 28.9997 94.6059 27.4917 94.2843 26.0368C93.9628 24.582 93.1691 23.2456 92.0037 22.1967C90.8382 21.1478 89.3534 20.4335 87.7369 20.1441C86.1204 19.8547 84.4448 20.0032 82.9221 20.5709C81.3994 21.1386 80.0979 22.0999 79.1822 23.3332C78.2665 24.5666 77.7778 26.0166 77.7778 27.5C77.7778 29.4891 78.6558 31.3968 80.2186 32.8033C81.7814 34.2098 83.901 35 86.1111 35ZM54.0747 27.8828C55.0051 27.6285 55.9721 27.4995 56.9445 27.5C58.0708 27.5084 59.1869 27.6929 60.2431 28.0453L62.908 20.45C63.0954 19.9197 63.1493 19.3585 63.0657 18.8071C62.9822 18.2558 62.7634 17.728 62.4252 17.2622C62.0869 16.7964 61.6377 16.4041 61.1102 16.1139C60.5826 15.8237 59.9899 15.6428 59.375 15.5844C57.3733 15.3734 55.5191 16.5906 54.9115 18.3203L51.283 28.6594L54.0747 27.8828ZM16.2587 60.3641C16.3976 60.3344 16.5261 60.2797 16.6667 60.2531V56.2391C16.6712 51.1155 18.4695 46.1235 21.8062 41.9722C25.1428 37.8209 29.848 34.7214 35.2535 33.1141L48.0486 29.5578L53.9792 12.6641C54.1656 12.1343 54.2189 11.5738 54.1351 11.0232C54.0514 10.4726 53.8327 9.9457 53.4949 9.4805C53.1571 9.0153 52.7087 8.62349 52.182 8.33339C51.6554 8.0433 51.0636 7.86217 50.4497 7.80313C48.4479 7.59375 46.592 8.81094 45.9844 10.5406L40.1771 27.1688C40.0659 27.4849 39.8197 27.7484 39.4926 27.9012C39.1656 28.054 38.7845 28.0837 38.4332 27.9836C38.0819 27.8835 37.7891 27.6619 37.6193 27.3676C37.4495 27.0732 37.4166 26.7303 37.5278 26.4141L45.0573 4.88438C45.2437 4.35459 45.297 3.79413 45.2132 3.24355C45.1295 2.69296 44.9108 2.16601 44.573 1.70081C44.2352 1.23562 43.7868 0.8438 43.2601 0.553704C42.7335 0.263608 42.1418 0.0824867 41.5278 0.0234397C39.5261 -0.185935 37.6736 1.03125 37.0643 2.75938L28.7431 26.4641C28.6321 26.7803 28.3861 27.0438 28.0592 27.1968C27.7323 27.3497 27.3513 27.3796 27 27.2797C26.6487 27.1798 26.3558 26.9584 26.1859 26.6642C26.0159 26.37 25.9828 26.0271 26.0938 25.7109L32.7882 6.64844C32.9746 6.11865 33.0279 5.55819 32.9441 5.00761C32.8604 4.45702 32.6417 3.93008 32.3039 3.46488C31.9661 2.99968 31.5177 2.60786 30.991 2.31777C30.4644 2.02767 29.8727 1.84655 29.2587 1.7875C27.257 1.5625 25.4028 2.78594 24.7952 4.51563L14.3785 34.1797L14.0209 26.3594C14.0243 25.8668 13.9198 25.3784 13.7135 24.9222C13.5072 24.4659 13.203 24.0507 12.8183 23.7003C12.4336 23.3499 11.976 23.0711 11.4716 22.8799C10.9671 22.6887 10.4258 22.5888 9.87849 22.5859C7.58161 22.5781 5.58682 24.2328 5.55557 26.3141V43.9281C5.61027 47.2664 6.62492 50.535 8.50065 53.4155C10.3764 56.2959 13.0492 58.6898 16.2587 60.3641ZM90.1215 52.5H62.5C62.1317 52.5 61.7784 52.3683 61.5179 52.1339C61.2575 51.8995 61.1111 51.5815 61.1111 51.25C61.1111 50.9185 61.2575 50.6005 61.5179 50.3661C61.7784 50.1317 62.1317 50 62.5 50H84.7222C85.3398 50.0004 85.9496 49.8772 86.5078 49.6395C87.0659 49.4017 87.5584 49.0553 87.9495 48.6252C88.3406 48.1951 88.6206 47.6922 88.7693 47.1528C88.9179 46.6134 88.9315 46.051 88.8091 45.5062C88.4288 43.725 86.5816 42.5 84.566 42.5H50L58.1754 39.8344C58.6984 39.6889 59.1844 39.4521 59.6058 39.1376C60.0271 38.8231 60.3755 38.4369 60.631 38.0012C60.8865 37.5655 61.0442 37.0887 61.095 36.5982C61.1458 36.1077 61.0887 35.6129 60.9271 35.1422C60.7655 34.6715 60.5024 34.234 60.1529 33.8548C59.8034 33.4756 59.3744 33.1621 58.8902 32.9321C58.4061 32.7022 57.8764 32.5603 57.3313 32.5145C56.7863 32.4688 56.2366 32.5201 55.7136 32.6656L37.0122 37.8609C32.7095 39.1341 28.9632 41.5972 26.3074 44.8993C23.6517 48.2013 22.222 52.1737 22.2222 56.25V60.2578C24.2255 60.6209 26.1146 61.3785 27.7542 62.4762C29.3938 63.5739 30.7432 64.9845 31.7056 66.6068C32.6681 68.2292 33.2198 70.0231 33.3211 71.8599C33.4224 73.6968 33.0709 75.5311 32.2917 77.2312C35.5278 79.0289 39.2527 79.9871 43.0556 80H79.1667C79.7842 80.0004 80.3941 79.8772 80.9522 79.6395C81.5104 79.4017 82.0028 79.0553 82.3939 78.6252C82.785 78.1951 83.0651 77.6922 83.2137 77.1528C83.3624 76.6134 83.376 76.051 83.2535 75.5062C82.8733 73.725 81.0261 72.5 79.0104 72.5H62.5C62.1317 72.5 61.7784 72.3683 61.5179 72.1339C61.2575 71.8995 61.1111 71.5815 61.1111 71.25C61.1111 70.9185 61.2575 70.6005 61.5179 70.3661C61.7784 70.1317 62.1317 70 62.5 70H84.7222C85.3398 70.0004 85.9496 69.8772 86.5078 69.6395C87.0659 69.4017 87.5584 69.0553 87.9495 68.6252C88.3406 68.1951 88.6206 67.6922 88.7693 67.1528C88.9179 66.6134 88.9315 66.051 88.8091 65.5062C88.4288 63.725 86.5816 62.5 84.566 62.5H62.5C62.1317 62.5 61.7784 62.3683 61.5179 62.1339C61.2575 61.8995 61.1111 61.5815 61.1111 61.25C61.1111 60.9185 61.2575 60.6005 61.5179 60.3661C61.7784 60.1317 62.1317 60 62.5 60H90.2778C90.8953 60.0004 91.5052 59.8772 92.0633 59.6395C92.6215 59.4017 93.1139 59.0553 93.505 58.6252C93.8962 58.1951 94.1762 57.6922 94.3248 57.1528C94.4735 56.6134 94.4871 56.051 94.3646 55.5062C93.9844 53.725 92.1372 52.5 90.1215 52.5ZM72.2222 10C73.321 10 74.3951 9.70676 75.3087 9.15735C76.2224 8.60794 76.9344 7.82705 77.3549 6.91342C77.7754 5.99979 77.8854 4.99446 77.6711 4.02455C77.4567 3.05465 76.9276 2.16373 76.1506 1.46447C75.3737 0.765206 74.3838 0.289002 73.3061 0.0960758C72.2284 -0.0968503 71.1114 0.00216641 70.0962 0.380605C69.0811 0.759043 68.2134 1.39991 67.603 2.22215C66.9925 3.0444 66.6667 4.0111 66.6667 5C66.6667 6.32609 67.252 7.59785 68.2939 8.53554C69.3357 9.47322 70.7488 10 72.2222 10ZM19.4445 65C17.7963 65 16.1851 65.4399 14.8147 66.264C13.4443 67.0881 12.3762 68.2594 11.7455 69.6299C11.1147 71.0003 10.9497 72.5083 11.2713 73.9632C11.5928 75.418 12.3865 76.7544 13.5519 77.8033C14.7173 78.8522 16.2022 79.5665 17.8187 79.8559C19.4352 80.1453 21.1108 79.9968 22.6335 79.4291C24.1562 78.8614 25.4577 77.9001 26.3734 76.6668C27.2891 75.4334 27.7778 73.9834 27.7778 72.5C27.7778 70.5109 26.8998 68.6032 25.337 67.1967C23.7742 65.7902 21.6546 65 19.4445 65Z" fill="black"/>
</g>
<defs>
<clipPath id="clip0">
<rect width="100" height="80" fill="white"/>
</clipPath>
</defs>
</svg>
