<svg width="100" height="80" viewBox="0 0 100 80" fill="none" xmlns="http://www.w3.org/2000/svg">
<g clip-path="url(#clip0)">
<path d="M0 20.0327V59.9999H10C11.3261 59.9999 12.5979 59.4731 13.5355 58.5354C14.4732 57.5978 15 56.326 15 54.9999V28.7499L3.72344 20.0327H0ZM7.5 50.0155C7.99445 50.0155 8.4778 50.1622 8.88893 50.4369C9.30005 50.7116 9.62048 51.102 9.8097 51.5588C9.99892 52.0156 10.0484 52.5183 9.95196 53.0033C9.8555 53.4882 9.6174 53.9337 9.26777 54.2833C8.91814 54.6329 8.47268 54.871 7.98773 54.9675C7.50277 55.064 7.00011 55.0145 6.54329 54.8252C6.08648 54.636 5.69603 54.3156 5.42133 53.9045C5.14662 53.4933 5 53.01 5 52.5155C5 51.8525 5.26339 51.2166 5.73223 50.7478C6.20107 50.2789 6.83696 50.0155 7.5 50.0155ZM20 54.9859H22.8594L37 67.7812C39.0578 69.4524 41.6951 70.2381 44.3321 69.9657C46.969 69.6932 49.3899 68.3848 51.0625 66.328L51.0938 66.2968L53.8922 68.7187C54.4839 69.2 55.1646 69.5601 55.8955 69.7783C56.6264 69.9965 57.3931 70.0686 58.1518 69.9904C58.9106 69.9122 59.6465 69.6852 60.3175 69.3225C60.9885 68.9598 61.5815 68.4684 62.0625 67.8765L63.4375 66.1859L20 32.6124V54.9859ZM85 20.0327V55.0155C85 56.3416 85.5268 57.6134 86.4645 58.5511C87.4021 59.4888 88.6739 60.0155 90 60.0155H100V20.0327H85ZM92.5 55.0155C92.0055 55.0155 91.5222 54.8689 91.1111 54.5942C90.7 54.3195 90.3795 53.9291 90.1903 53.4722C90.0011 53.0154 89.9516 52.5128 90.048 52.0278C90.1445 51.5429 90.3826 51.0974 90.7322 50.7478C91.0819 50.3981 91.5273 50.16 92.0123 50.0636C92.4972 49.9671 92.9999 50.0166 93.4567 50.2058C93.9135 50.3951 94.304 50.7155 94.5787 51.1266C94.8534 51.5377 95 52.0211 95 52.5155C95 53.1786 94.7366 53.8145 94.2678 54.2833C93.7989 54.7521 93.163 55.0155 92.5 55.0155ZM47.3953 31.6671L56.7047 23.1405C57.1964 22.7093 57.8376 22.4878 58.4907 22.5238C59.1437 22.5598 59.7567 22.8503 60.1981 23.333C60.6395 23.8156 60.8741 24.4521 60.8517 25.1058C60.8293 25.7594 60.5516 26.3783 60.0781 26.8296L56.0016 30.5624L78.75 49.0312C79.1917 49.4005 79.6049 49.8027 79.9859 50.2343V19.9999L71.4531 11.4702C70.9911 11.0037 70.441 10.6335 69.8349 10.3812C69.2287 10.1288 68.5785 9.99919 67.9219 9.99991H54.5C53.2501 9.99971 52.0457 10.4687 51.125 11.314L37.3641 23.914L33.3578 20.8187L45.1703 9.99991H32.0781C30.7527 10.0026 29.4825 10.5314 28.5469 11.4702L25.3687 14.6437L7.10469 0.528036C6.84543 0.326088 6.54889 0.177237 6.23205 0.0899989C5.91521 0.00276104 5.58428 -0.0211521 5.25819 0.0196276C4.93209 0.0604073 4.61724 0.165079 4.33164 0.327656C4.04604 0.490233 3.79529 0.707524 3.59375 0.967098L0.528125 4.91554C0.121248 5.43895 -0.0610715 6.10254 0.0212662 6.76036C0.103604 7.41818 0.443856 8.01637 0.967188 8.42335L92.8953 79.4734C93.1546 79.6753 93.4511 79.8242 93.7679 79.9114C94.0848 79.9986 94.4157 80.0225 94.7418 79.9818C95.0679 79.941 95.3828 79.8363 95.6684 79.6737C95.954 79.5112 96.2047 79.2939 96.4062 79.0343L99.4766 75.0859C99.8833 74.5622 100.065 73.8985 99.9827 73.2407C99.9001 72.5829 99.5595 71.9848 99.0359 71.578L47.3953 31.6671Z" fill="black"/>
</g>
<defs>
<clipPath id="clip0">
<rect width="100" height="80" fill="white"/>
</clipPath>
</defs>
</svg>
