<svg width="114" height="108" viewBox="0 0 114 108" fill="none" xmlns="http://www.w3.org/2000/svg">
<path d="M14.25 63H23.75V94.5C23.75 95.6935 24.2504 96.8381 25.1412 97.682C26.032 98.5259 27.2402 99 28.5 99H85.5C86.7598 99 87.968 98.5259 88.8588 97.682C89.7496 96.8381 90.25 95.6935 90.25 94.5V63H99.75C100.668 63.0008 101.566 62.749 102.336 62.2753C103.106 61.8016 103.714 61.1263 104.087 60.3315C104.462 59.5371 104.585 58.6565 104.442 57.7969C104.298 56.9373 103.895 56.1357 103.279 55.4895L60.5292 10.4895C58.729 8.5905 55.271 8.5905 53.4707 10.4895L10.7207 55.4895C10.1065 56.136 9.70324 56.9373 9.55968 57.7963C9.41611 58.6554 9.53843 59.5355 9.91182 60.3301C10.2852 61.1248 10.8937 61.7998 11.6636 62.2736C12.4335 62.7475 13.3319 62.9998 14.25 63ZM41.1017 52.3845C43.0789 50.5353 45.7453 49.4984 48.5236 49.4984C51.3019 49.4984 53.9684 50.5353 55.9455 52.3845L57.0095 53.3745L58.0687 52.3845C60.0467 50.535 62.7139 49.498 65.493 49.498C68.2721 49.498 70.9393 50.535 72.9172 52.3845C73.8985 53.2788 74.6791 54.3516 75.2123 55.5385C75.7455 56.7254 76.0204 58.0021 76.0204 59.292C76.0204 60.5819 75.7455 61.8586 75.2123 63.0455C74.6791 64.2325 73.8985 65.3052 72.9172 66.1995L57.0095 81L41.1017 66.1995C40.1205 65.3052 39.3399 64.2325 38.8067 63.0455C38.2735 61.8586 37.9986 60.5819 37.9986 59.292C37.9986 58.0021 38.2735 56.7254 38.8067 55.5385C39.3399 54.3516 40.1205 53.2788 41.1017 52.3845Z" fill="black"/>
</svg>
