<svg width="181" height="52" viewBox="0 0 181 52" fill="none" xmlns="http://www.w3.org/2000/svg">
<rect width="181" height="51.2098" fill="#222222"/>
<path d="M68.0004 26.9142C67.8731 28.6736 67.2217 30.0587 66.0463 31.0695C64.8783 32.0802 63.336 32.5856 61.4193 32.5856C59.323 32.5856 57.6721 31.8818 56.4667 30.4742C55.2688 29.0592 54.6698 27.1201 54.6698 24.6569V23.6573C54.6698 22.0851 54.9468 20.7 55.5009 19.5021C56.0549 18.3042 56.8448 17.387 57.8705 16.7506C58.9037 16.1067 60.1016 15.7848 61.4642 15.7848C63.351 15.7848 64.8708 16.2902 66.0238 17.3009C67.1768 18.3116 67.8431 19.7304 68.0228 21.5573H64.6537C64.5713 20.5016 64.2756 19.7379 63.7665 19.2662C63.2649 18.7871 62.4974 18.5475 61.4642 18.5475C60.3412 18.5475 59.4989 18.9518 58.9374 19.7604C58.3833 20.5615 58.0988 21.8081 58.0839 23.5001V24.7355C58.0839 26.5024 58.3497 27.7939 58.8812 28.61C59.4203 29.4261 60.2663 29.8341 61.4193 29.8341C62.46 29.8341 63.2349 29.5983 63.744 29.1266C64.2606 28.6474 64.5564 27.91 64.6312 26.9142H68.0004ZM83.6444 24.5558C83.6444 26.1655 83.3599 27.5768 82.7909 28.7897C82.2219 30.0026 81.4058 30.9384 80.3427 31.5973C79.287 32.2561 78.0741 32.5856 76.704 32.5856C75.3488 32.5856 74.1397 32.2599 73.0765 31.6085C72.0134 30.9572 71.1898 30.0288 70.6058 28.8234C70.0219 27.6105 69.7261 26.2179 69.7186 24.6456V23.837C69.7186 22.2273 70.0069 20.8123 70.5834 19.5919C71.1674 18.3641 71.9872 17.4244 73.0428 16.7731C74.106 16.1142 75.3189 15.7848 76.6815 15.7848C78.0441 15.7848 79.2533 16.1142 80.309 16.7731C81.3721 17.4244 82.1919 18.3641 82.7684 19.5919C83.3524 20.8123 83.6444 22.2236 83.6444 23.8258V24.5558ZM80.2303 23.8146C80.2303 22.1001 79.9234 20.7973 79.3094 19.9064C78.6955 19.0154 77.8195 18.5699 76.6815 18.5699C75.551 18.5699 74.6788 19.0117 74.0648 19.8951C73.4509 20.7711 73.1402 22.0589 73.1327 23.7584V24.5558C73.1327 26.2254 73.4397 27.5206 74.0536 28.4415C74.6675 29.3624 75.551 29.8229 76.704 29.8229C77.8345 29.8229 78.703 29.3811 79.3094 28.4977C79.9159 27.6067 80.2229 26.3115 80.2303 24.6119V23.8146ZM91.8876 28.3068L95.5936 16.0094H99.3446L93.6508 32.361H90.1356L84.4642 16.0094H88.204L91.8876 28.3068ZM104.477 32.361H101.108V16.0094H104.477V32.361ZM107.61 32.361V16.0094H112.641C114.079 16.0094 115.363 16.3351 116.494 16.9865C117.632 17.6303 118.519 18.5512 119.155 19.7491C119.792 20.9396 120.11 22.2947 120.11 23.8146V24.567C120.11 26.0869 119.795 27.4383 119.166 28.6212C118.545 29.8042 117.665 30.7213 116.527 31.3727C115.389 32.024 114.105 32.3535 112.675 32.361H107.61ZM110.979 18.7384V29.6544H112.608C113.925 29.6544 114.932 29.2239 115.629 28.3629C116.325 27.5019 116.681 26.2703 116.696 24.6681V23.8033C116.696 22.1412 116.351 20.8834 115.662 20.0299C114.974 19.1689 113.967 18.7384 112.641 18.7384H110.979ZM126.152 32.361H122.783V16.0094H126.152V32.361ZM142.582 32.361H139.213L132.654 21.6022V32.361H129.285V16.0094H132.654L139.224 26.7906V16.0094H142.582V32.361ZM155.362 25.6788H148.893V32.361H145.524V16.0094H156.171V18.7384H148.893V22.9611H155.362V25.6788ZM171.557 24.5558C171.557 26.1655 171.272 27.5768 170.703 28.7897C170.134 30.0026 169.318 30.9384 168.255 31.5973C167.199 32.2561 165.986 32.5856 164.616 32.5856C163.261 32.5856 162.052 32.2599 160.989 31.6085C159.925 30.9572 159.102 30.0288 158.518 28.8234C157.934 27.6105 157.638 26.2179 157.631 24.6456V23.837C157.631 22.2273 157.919 20.8123 158.495 19.5919C159.079 18.3641 159.899 17.4244 160.955 16.7731C162.018 16.1142 163.231 15.7848 164.594 15.7848C165.956 15.7848 167.165 16.1142 168.221 16.7731C169.284 17.4244 170.104 18.3641 170.681 19.5919C171.265 20.8123 171.557 22.2236 171.557 23.8258V24.5558ZM168.142 23.8146C168.142 22.1001 167.835 20.7973 167.222 19.9064C166.608 19.0154 165.732 18.5699 164.594 18.5699C163.463 18.5699 162.591 19.0117 161.977 19.8951C161.363 20.7711 161.052 22.0589 161.045 23.7584V24.5558C161.045 26.2254 161.352 27.5206 161.966 28.4415C162.58 29.3624 163.463 29.8229 164.616 29.8229C165.747 29.8229 166.615 29.3811 167.222 28.4977C167.828 27.6067 168.135 26.3115 168.142 24.6119V23.8146Z" fill="white"/>
<g clip-path="url(#clip0)">
<path d="M26.9292 21.1903C26.7109 21.1903 26.4976 21.255 26.3161 21.3763C26.1346 21.4975 25.9931 21.6699 25.9096 21.8716C25.826 22.0732 25.8042 22.2951 25.8468 22.5092C25.8894 22.7233 25.9945 22.92 26.1488 23.0743C26.3032 23.2287 26.4998 23.3338 26.7139 23.3764C26.928 23.4189 27.1499 23.3971 27.3516 23.3136C27.5532 23.23 27.7256 23.0886 27.8469 22.9071C27.9682 22.7256 28.0329 22.5122 28.0329 22.2939C28.0329 22.0012 27.9166 21.7205 27.7096 21.5135C27.5027 21.3065 27.2219 21.1903 26.9292 21.1903ZM43.6566 13.7185L30.4127 8.20019C30.0053 8.04616 29.5753 7.96039 29.14 7.94635C28.7045 7.9601 28.2743 8.04563 27.8666 8.1995L14.6227 13.7178C14.0181 13.9682 13.5013 14.3925 13.138 14.9368C12.7746 15.4812 12.581 16.1211 12.5817 16.7756C12.5817 30.4679 20.4797 39.9331 27.8604 43.0096C28.2639 43.1773 28.6965 43.2636 29.1334 43.2636C29.5704 43.2636 30.003 43.1773 30.4064 43.0096C36.3165 40.5464 45.6914 32.0406 45.6914 16.7756C45.6918 16.1221 45.4988 15.4831 45.1367 14.9391C44.7746 14.3951 44.2596 13.9704 43.6566 13.7185ZM37.9658 25.6049H37.1298C35.1632 25.6049 34.1782 27.9826 35.5688 29.3732L36.1606 29.9643C36.3676 30.1713 36.4839 30.4521 36.4839 30.7448C36.4839 31.0376 36.3676 31.3183 36.1606 31.5253C35.9536 31.7323 35.6729 31.8486 35.3802 31.8486C35.0874 31.8486 34.8067 31.7323 34.5997 31.5253L34.0085 30.9335C32.6179 29.5429 30.2402 30.5279 30.2402 32.4945V33.3305C30.2402 33.6232 30.1239 33.9039 29.917 34.1109C29.71 34.3179 29.4293 34.4342 29.1365 34.4342C28.8438 34.4342 28.5631 34.3179 28.3561 34.1109C28.1492 33.9039 28.0329 33.6232 28.0329 33.3305V32.4945C28.0329 30.5279 25.6552 29.5429 24.2646 30.9335L23.6734 31.5253C23.5709 31.6278 23.4493 31.7091 23.3153 31.7646C23.1814 31.8201 23.0379 31.8486 22.8929 31.8486C22.748 31.8486 22.6045 31.8201 22.4705 31.7646C22.3366 31.7091 22.2149 31.6278 22.1124 31.5253C22.01 31.4228 21.9286 31.3011 21.8732 31.1672C21.8177 31.0333 21.7892 30.8898 21.7892 30.7448C21.7892 30.5999 21.8177 30.4563 21.8732 30.3224C21.9286 30.1885 22.01 30.0668 22.1124 29.9643L22.7043 29.3732C24.0949 27.9826 23.1099 25.6049 21.1433 25.6049H20.3073C20.0146 25.6049 19.7338 25.4886 19.5269 25.2816C19.3199 25.0747 19.2036 24.7939 19.2036 24.5012C19.2036 24.2085 19.3199 23.9278 19.5269 23.7208C19.7338 23.5138 20.0146 23.3976 20.3073 23.3976H21.1433C23.1099 23.3976 24.0949 21.0199 22.7043 19.6293L22.1124 19.0381C21.9054 18.8311 21.7892 18.5504 21.7892 18.2576C21.7892 17.9649 21.9054 17.6841 22.1124 17.4771C22.3194 17.2701 22.6002 17.1538 22.8929 17.1538C23.1857 17.1538 23.4664 17.2701 23.6734 17.4771L24.2646 18.069C25.6552 19.4596 28.0329 18.4746 28.0329 16.508V15.672C28.0329 15.3793 28.1492 15.0985 28.3561 14.8916C28.5631 14.6846 28.8438 14.5683 29.1365 14.5683C29.4293 14.5683 29.71 14.6846 29.917 14.8916C30.1239 15.0985 30.2402 15.3793 30.2402 15.672V16.508C30.2402 18.4746 32.6179 19.4596 34.0085 18.069L34.5997 17.4771C34.8067 17.2701 35.0874 17.1538 35.3802 17.1538C35.6729 17.1538 35.9536 17.2701 36.1606 17.4771C36.3676 17.6841 36.4839 17.9649 36.4839 18.2576C36.4839 18.5504 36.3676 18.8311 36.1606 19.0381L35.5688 19.6293C34.1782 21.0199 35.1632 23.3976 37.1298 23.3976H37.9658C38.2585 23.3976 38.5392 23.5138 38.7462 23.7208C38.9532 23.9278 39.0695 24.2085 39.0695 24.5012C39.0695 24.7939 38.9532 25.0747 38.7462 25.2816C38.5392 25.4886 38.2585 25.6049 37.9658 25.6049ZM31.3439 25.6049C31.1256 25.6049 30.9122 25.6696 30.7307 25.7909C30.5492 25.9122 30.4078 26.0845 30.3242 26.2862C30.2407 26.4879 30.2188 26.7098 30.2614 26.9239C30.304 27.1379 30.4091 27.3346 30.5635 27.489C30.7178 27.6433 30.9145 27.7484 31.1285 27.791C31.3426 27.8336 31.5645 27.8117 31.7662 27.7282C31.9679 27.6447 32.1403 27.5032 32.2615 27.3217C32.3828 27.1402 32.4475 26.9268 32.4475 26.7085C32.4475 26.4158 32.3312 26.1351 32.1243 25.9281C31.9173 25.7212 31.6366 25.6049 31.3439 25.6049Z" fill="#FF304F"/>
</g>
<defs>
<clipPath id="clip0">
<rect width="35.3171" height="35.3171" fill="white" transform="translate(11.478 7.94635)"/>
</clipPath>
</defs>
</svg>
