<svg width="105" height="104" viewBox="0 0 105 104" fill="none" xmlns="http://www.w3.org/2000/svg">
<path d="M89.5825 40.2437L53.9744 52H19.6875C18.9816 51.9996 18.2862 52.1685 17.6604 52.492C17.0347 52.8156 16.4973 53.2844 16.0942 53.8582C15.691 54.4321 15.434 55.0941 15.3451 55.7877C15.2562 56.4813 15.3381 57.1859 15.5837 57.8413L21.9188 74.7197C21.9713 74.867 22.0369 75.01 22.1069 75.1487C23.1906 77.3127 24.8646 79.1327 26.9393 80.4026C29.0139 81.6724 31.4062 82.3413 33.845 82.3333H54.6875C55.1634 82.3341 55.6363 82.258 56.0875 82.108L81.7425 73.5367L84.4375 63.4877L59.0625 71.9637V59.4577L88.0863 49.8767L89.5431 44.4427C89.638 44.0803 89.6865 43.7076 89.6875 43.3333V42.3453C89.6875 41.639 89.6263 40.9413 89.5825 40.2437Z" fill="black"/>
<path opacity="0.5" d="M16.0913 53.859C16.4949 53.2848 17.0328 52.8159 17.659 52.4922C18.2852 52.1685 18.9811 51.9996 19.6875 52H53.9744L89.5869 40.2437C89.1753 32.0314 85.7075 24.2612 79.8525 18.4323C73.9975 12.6034 66.1702 9.12908 57.8812 8.67965C53.4837 8.51053 49.0979 9.23618 44.9946 10.8118C40.8913 12.3874 37.1577 14.7795 34.0244 17.8403C30.8788 20.8434 28.3758 24.4429 26.6643 28.4244C24.9529 32.4058 24.068 36.6877 24.0625 41.015L15.96 54.0627C15.9381 54.1017 15.9425 54.1493 15.9163 54.1927C15.9819 54.08 16.0213 53.963 16.0913 53.859Z" fill="black"/>
<path opacity="0.5" d="M59.0625 59.4577V71.9637L84.4375 63.4877L89.5431 44.4427L88.0863 49.8767L59.0625 59.4577Z" fill="black"/>
<path opacity="0.5" d="M81.0994 75.9287L81.9744 72.6613L81.7425 73.5366L56.0831 82.108C55.6333 82.2576 55.162 82.3337 54.6875 82.3333H37.1875V91C37.1875 92.1493 37.6484 93.2515 38.4689 94.0641C39.2894 94.8768 40.4022 95.3333 41.5625 95.3333H80.9375C81.6152 95.3328 82.2835 95.1762 82.8897 94.8761C83.4959 94.576 84.0235 94.1405 84.4307 93.6039C84.838 93.0673 85.1138 92.4444 85.2364 91.7842C85.3591 91.124 85.3252 90.4447 85.1375 89.7997L81.0994 75.9287Z" fill="black"/>
</svg>
